<?xml version="1.0" encoding="UTF-8" standalone="no"?>
<svg
   xmlns:dc="http://purl.org/dc/elements/1.1/"
   xmlns:cc="http://creativecommons.org/ns#"
   xmlns:rdf="http://www.w3.org/1999/02/22-rdf-syntax-ns#"
   xmlns:svg="http://www.w3.org/2000/svg"
   xmlns="http://www.w3.org/2000/svg"
   xmlns:sodipodi="http://sodipodi.sourceforge.net/DTD/sodipodi-0.dtd"
   xmlns:inkscape="http://www.inkscape.org/namespaces/inkscape"
   width="1080"
   height="335.52399"
   viewBox="0 0 285.75001 88.774053"
   version="1.1"
   id="svg8"
   inkscape:version="1.0.2 (e86c870879, 2021-01-15)"
   sodipodi:docname="librery.svg">
  <defs
     id="defs2" />
  <sodipodi:namedview
     id="base"
     pagecolor="#ffffff"
     bordercolor="#666666"
     borderopacity="1.0"
     inkscape:pageopacity="0.0"
     inkscape:pageshadow="2"
     inkscape:zoom="0.5"
     inkscape:cx="735.808"
     inkscape:cy="241.52196"
     inkscape:document-units="mm"
     inkscape:current-layer="g1324"
     inkscape:document-rotation="0"
     showgrid="false"
     showguides="true"
     inkscape:guide-bbox="true"
     inkscape:snap-intersection-paths="true"
     inkscape:snap-smooth-nodes="true"
     inkscape:window-width="1366"
     inkscape:window-height="746"
     inkscape:window-x="0"
     inkscape:window-y="22"
     inkscape:window-maximized="0"
     inkscape:object-paths="true"
     inkscape:snap-nodes="false"
     inkscape:object-nodes="true"
     inkscape:snap-midpoints="true"
     units="px" />
  <metadata
     id="metadata5">
    <rdf:RDF>
      <cc:Work
         rdf:about="">
        <dc:format>image/svg+xml</dc:format>
        <dc:type
           rdf:resource="http://purl.org/dc/dcmitype/StillImage" />
        <dc:title />
      </cc:Work>
    </rdf:RDF>
  </metadata>
  <g
     inkscape:label="Layer 1"
     inkscape:groupmode="layer"
     id="layer1">
    <g
       id="g1324"
       transform="matrix(0.26339858,0,0,0.26339858,131.00899,-293.59923)">
      <rect
         style="fill:#4e4e4e;fill-opacity:1;stroke:#4e4e4e;stroke-width:1.27028;stroke-linecap:round;stroke-linejoin:round;stroke-miterlimit:4;stroke-dasharray:none;stroke-opacity:1;paint-order:stroke markers fill"
         id="rect1098"
         width="1083.5875"
         height="335.76291"
         x="-496.74414"
         y="1115.2927"
         ry="52.946541" />
      <g
         id="g1310">
        <g
           id="g1174"
           transform="translate(-665.77261,1159.4621)"
           style="fill:#ffffff">
          <path
             style="color:#000000;font-style:normal;font-variant:normal;font-weight:normal;font-stretch:normal;font-size:medium;line-height:normal;font-family:sans-serif;font-variant-ligatures:normal;font-variant-position:normal;font-variant-caps:normal;font-variant-numeric:normal;font-variant-alternates:normal;font-variant-east-asian:normal;font-feature-settings:normal;font-variation-settings:normal;text-indent:0;text-align:start;text-decoration:none;text-decoration-line:none;text-decoration-style:solid;text-decoration-color:#000000;letter-spacing:normal;word-spacing:normal;text-transform:none;writing-mode:lr-tb;direction:ltr;text-orientation:mixed;dominant-baseline:auto;baseline-shift:baseline;text-anchor:start;white-space:normal;shape-padding:0;shape-margin:0;inline-size:0;clip-rule:nonzero;display:inline;overflow:visible;visibility:visible;isolation:auto;mix-blend-mode:normal;color-interpolation:sRGB;color-interpolation-filters:linearRGB;solid-color:#000000;solid-opacity:1;vector-effect:none;fill:#ffffff;fill-opacity:1;fill-rule:nonzero;stroke:none;stroke-width:1.332;stroke-linecap:round;stroke-linejoin:round;stroke-miterlimit:4;stroke-dasharray:none;stroke-dashoffset:0;stroke-opacity:1;paint-order:stroke markers fill;color-rendering:auto;image-rendering:auto;shape-rendering:auto;text-rendering:auto;enable-background:accumulate;stop-color:#000000"
             d="m 482.06508,30.087769 a 7.0482728,7.0482728 0 0 0 -7.04763,7.05023 V 169.57043 a 7.0482728,7.0482728 0 0 0 0.14308,1.41525 c 0.77083,25.4687 21.67617,46.05283 47.32499,46.05283 a 7.0482728,7.0482728 0 0 0 7.04763,-7.04762 7.0482728,7.0482728 0 0 0 -7.04763,-7.04763 c -18.51494,0 -33.37282,-14.85788 -33.37282,-33.37283 V 37.137999 a 7.0482728,7.0482728 0 0 0 -7.04762,-7.05023 z"
             id="path888" />
          <path
             style="color:#000000;font-style:normal;font-variant:normal;font-weight:normal;font-stretch:normal;font-size:medium;line-height:normal;font-family:sans-serif;font-variant-ligatures:normal;font-variant-position:normal;font-variant-caps:normal;font-variant-numeric:normal;font-variant-alternates:normal;font-variant-east-asian:normal;font-feature-settings:normal;font-variation-settings:normal;text-indent:0;text-align:start;text-decoration:none;text-decoration-line:none;text-decoration-style:solid;text-decoration-color:#000000;letter-spacing:normal;word-spacing:normal;text-transform:none;writing-mode:lr-tb;direction:ltr;text-orientation:mixed;dominant-baseline:auto;baseline-shift:baseline;text-anchor:start;white-space:normal;shape-padding:0;shape-margin:0;inline-size:0;clip-rule:nonzero;display:inline;overflow:visible;visibility:visible;isolation:auto;mix-blend-mode:normal;color-interpolation:sRGB;color-interpolation-filters:linearRGB;solid-color:#000000;solid-opacity:1;vector-effect:none;fill:#ffffff;fill-opacity:1;fill-rule:nonzero;stroke:none;stroke-width:1.332;stroke-linecap:round;stroke-linejoin:miter;stroke-miterlimit:4;stroke-dasharray:none;stroke-dashoffset:0;stroke-opacity:1;color-rendering:auto;image-rendering:auto;shape-rendering:auto;text-rendering:auto;enable-background:accumulate;stop-color:#000000"
             d="m 522.48552,81.739153 a 7.0484722,7.0484722 0 0 0 -7.04763,7.050231 v 1.129082 a 7.0484722,7.0484722 0 0 0 7.04763,7.04762 7.0484722,7.0484722 0 0 0 7.04763,-7.04762 v -1.129082 a 7.0484722,7.0484722 0 0 0 -7.04763,-7.050231 z m 0,20.341597 a 7.0484722,7.0484722 0 0 0 -7.04763,7.04763 v 79.012 a 7.0484722,7.0484722 0 0 0 7.04763,7.04762 7.0484722,7.0484722 0 0 0 7.04763,-7.04762 v -79.012 a 7.0484722,7.0484722 0 0 0 -7.04763,-7.04763 z"
             id="path907" />
        </g>
        <path
           style="color:#000000;font-style:normal;font-variant:normal;font-weight:normal;font-stretch:normal;font-size:medium;line-height:normal;font-family:sans-serif;font-variant-ligatures:normal;font-variant-position:normal;font-variant-caps:normal;font-variant-numeric:normal;font-variant-alternates:normal;font-variant-east-asian:normal;font-feature-settings:normal;font-variation-settings:normal;text-indent:0;text-align:start;text-decoration:none;text-decoration-line:none;text-decoration-style:solid;text-decoration-color:#000000;letter-spacing:normal;word-spacing:normal;text-transform:none;writing-mode:lr-tb;direction:ltr;text-orientation:mixed;dominant-baseline:auto;baseline-shift:baseline;text-anchor:start;white-space:normal;shape-padding:0;shape-margin:0;inline-size:0;clip-rule:nonzero;display:inline;overflow:visible;visibility:visible;isolation:auto;mix-blend-mode:normal;color-interpolation:sRGB;color-interpolation-filters:linearRGB;solid-color:#000000;solid-opacity:1;vector-effect:none;fill:#ffffff;fill-opacity:1;fill-rule:nonzero;stroke:none;stroke-width:1.332;stroke-linecap:round;stroke-linejoin:miter;stroke-miterlimit:4;stroke-dasharray:none;stroke-dashoffset:0;stroke-opacity:1;color-rendering:auto;image-rendering:auto;shape-rendering:auto;text-rendering:auto;enable-background:accumulate;stop-color:#000000"
           d="m -119.21417,1241.2015 a 7.0484722,7.0484722 0 0 0 -0.25755,0.01 7.0484722,7.0484722 0 0 0 -0.51511,0.036 7.0484722,7.0484722 0 0 0 -0.25495,0.034 7.0484722,7.0484722 0 0 0 -0.50731,0.094 7.0484722,7.0484722 0 0 0 -0.24975,0.06 7.0484722,7.0484722 0 0 0 -0.24715,0.07 7.0484722,7.0484722 0 0 0 -0.48909,0.1665 7.0484722,7.0484722 0 0 0 -0.23674,0.096 7.0484722,7.0484722 0 0 0 -0.46828,0.2185 7.0484722,7.0484722 0 0 0 -0.44747,0.2524 7.0484722,7.0484722 0 0 0 -0.21853,0.1404 7.0484722,7.0484722 0 0 0 -0.21073,0.1457 7.0484722,7.0484722 0 0 0 -0.40844,0.3148 7.0484722,7.0484722 0 0 0 -0.56714,0.5255 7.0484722,7.0484722 0 0 0 -0.17431,0.1899 7.0484722,7.0484722 0 0 0 -0.3304,0.3955 7.0484722,7.0484722 0 0 0 -0.29918,0.4188 7.0484722,7.0484722 0 0 0 -0.13788,0.2186 7.0484722,7.0484722 0 0 0 -0.25235,0.4474 7.0484722,7.0484722 0 0 0 -0.11186,0.2316 7.0484722,7.0484722 0 0 0 -0.10407,0.2367 7.0484722,7.0484722 0 0 0 -0.0963,0.2394 7.0484722,7.0484722 0 0 0 -0.1665,0.4865 7.0484722,7.0484722 0 0 0 -0.13009,0.4995 7.0484722,7.0484722 0 0 0 -0.052,0.2523 7.0484722,7.0484722 0 0 0 -0.0416,0.255 7.0484722,7.0484722 0 0 0 -0.0312,0.2549 7.0484722,7.0484722 0 0 0 -0.0416,0.7623 v 80.7836 40.2956 a 7.0484722,7.0484722 0 0 0 7.04763,7.0476 7.0484722,7.0484722 0 0 0 7.04763,-7.0476 v -6.7094 c 11.82438,11.7258 29.580617,16.8007 45.927947,12.0192 20.3289,-5.3554 34.96028,-24.6147 34.66058,-45.6366 0.11309,-17.5991 -9.98982,-34.1355 -25.6956,-42.0698 -17.93433,-9.529 -40.69672,-5.8222 -54.892927,8.5435 v -47.2261 a 7.0484722,7.0484722 0 0 0 -0.005,-0.2576 7.0484722,7.0484722 0 0 0 -0.0131,-0.2549 7.0484722,7.0484722 0 0 0 -0.0234,-0.2576 7.0484722,7.0484722 0 0 0 -0.0754,-0.5099 7.0484722,7.0484722 0 0 0 -0.34861,-1.2383 7.0484722,7.0484722 0 0 0 -0.0963,-0.2394 7.0484722,7.0484722 0 0 0 -0.10407,-0.2341 7.0484722,7.0484722 0 0 0 -0.11448,-0.2316 7.0484722,7.0484722 0 0 0 -0.68941,-1.0848 7.0484722,7.0484722 0 0 0 -0.5073,-0.5854 7.0484722,7.0484722 0 0 0 -0.18204,-0.1821 7.0484722,7.0484722 0 0 0 -0.58536,-0.5047 7.0484722,7.0484722 0 0 0 -0.41885,-0.2991 7.0484722,7.0484722 0 0 0 -0.21593,-0.1379 7.0484722,7.0484722 0 0 0 -0.68161,-0.3668 7.0484722,7.0484722 0 0 0 -0.71542,-0.2862 7.0484722,7.0484722 0 0 0 -0.74405,-0.2107 7.0484722,7.0484722 0 0 0 -0.25235,-0.049 7.0484722,7.0484722 0 0 0 -1.27477,-0.1171 z m 39.936557,54.6926 c 5.38773,-0.1179 10.76093,1.0086 15.43506,3.5017 l 0.0754,0.042 0.0754,0.039 c 10.77522,5.4124 18.12286,17.4363 18.02102,29.4965 v 0.086 l 0.003,0.086 c 0.22885,14.1673 -10.52038,28.3139 -24.23094,31.8899 l -0.10922,0.029 -0.10923,0.031 c -13.54736,4.0025 -30.001137,-2.5005 -37.147677,-14.6858 l -0.0572,-0.099 -0.0598,-0.096 c -7.53406,-11.9498 -5.74448,-29.5523 4.04022,-39.7414 l 0.0781,-0.081 0.0755,-0.086 c 5.908217,-6.5609 14.931397,-10.2151 23.910937,-10.4115 z m -40.147277,57.6454 c 0.0191,0.032 0.0459,0.059 0.065,0.091 0.0204,0.033 0.0315,0.069 0.052,0.1015 z"
           id="path911" />
        <path
           style="color:#000000;font-style:normal;font-variant:normal;font-weight:normal;font-stretch:normal;font-size:medium;line-height:normal;font-family:sans-serif;font-variant-ligatures:normal;font-variant-position:normal;font-variant-caps:normal;font-variant-numeric:normal;font-variant-alternates:normal;font-variant-east-asian:normal;font-feature-settings:normal;font-variation-settings:normal;text-indent:0;text-align:start;text-decoration:none;text-decoration-line:none;text-decoration-style:solid;text-decoration-color:#000000;letter-spacing:normal;word-spacing:normal;text-transform:none;writing-mode:lr-tb;direction:ltr;text-orientation:mixed;dominant-baseline:auto;baseline-shift:baseline;text-anchor:start;white-space:normal;shape-padding:0;shape-margin:0;inline-size:0;clip-rule:nonzero;display:inline;overflow:visible;visibility:visible;isolation:auto;mix-blend-mode:normal;color-interpolation:sRGB;color-interpolation-filters:linearRGB;solid-color:#000000;solid-opacity:1;vector-effect:none;fill:#ffffff;fill-opacity:1;fill-rule:nonzero;stroke:none;stroke-width:1.332;stroke-linecap:round;stroke-linejoin:miter;stroke-miterlimit:4;stroke-dasharray:none;stroke-dashoffset:0;stroke-opacity:1;color-rendering:auto;image-rendering:auto;shape-rendering:auto;text-rendering:auto;enable-background:accumulate;stop-color:#000000"
           d="m -14.548113,1281.8117 a 7.0484722,7.0484722 0 0 0 -7.04762,7.0476 v 40.2982 0.1248 40.1707 a 7.0484722,7.0484722 0 0 0 7.04762,7.0476 7.0484722,7.0484722 0 0 0 7.05023,-7.0476 v -40.1707 c 0,-18.5148 14.85799,-33.3728 33.37282,-33.3728 a 7.0484722,7.0484722 0 0 0 7.04764,-7.0502 7.0484722,7.0484722 0 0 0 -7.04764,-7.0476 c -12.99056,0 -24.78437,5.2859 -33.37282,13.7987 v -6.7511 a 7.0484722,7.0484722 0 0 0 -7.05023,-7.0476 z"
           id="path934" />
        <path
           style="color:#000000;font-style:normal;font-variant:normal;font-weight:normal;font-stretch:normal;font-size:medium;line-height:normal;font-family:sans-serif;font-variant-ligatures:normal;font-variant-position:normal;font-variant-caps:normal;font-variant-numeric:normal;font-variant-alternates:normal;font-variant-east-asian:normal;font-feature-settings:normal;font-variation-settings:normal;text-indent:0;text-align:start;text-decoration:none;text-decoration-line:none;text-decoration-style:solid;text-decoration-color:#000000;letter-spacing:normal;word-spacing:normal;text-transform:none;writing-mode:lr-tb;direction:ltr;text-orientation:mixed;dominant-baseline:auto;baseline-shift:baseline;text-anchor:start;white-space:normal;shape-padding:0;shape-margin:0;inline-size:0;clip-rule:nonzero;display:inline;overflow:visible;visibility:visible;isolation:auto;mix-blend-mode:normal;color-interpolation:sRGB;color-interpolation-filters:linearRGB;solid-color:#000000;solid-opacity:1;vector-effect:none;fill:#ffffff;fill-opacity:1;fill-rule:nonzero;stroke:none;stroke-width:1.332;stroke-linecap:round;stroke-linejoin:miter;stroke-miterlimit:4;stroke-dasharray:none;stroke-dashoffset:0;stroke-opacity:1;color-rendering:auto;image-rendering:auto;shape-rendering:auto;text-rendering:auto;enable-background:accumulate;stop-color:#000000"
           d="m 90.243957,1281.6867 c -25.58006,0 -46.42947,20.5305 -47.20011,45.9305 a 7.0484722,7.0484722 0 0 0 -0.0286,0.1405 7.0484722,7.0484722 0 0 0 -0.0416,0.255 7.0484722,7.0484722 0 0 0 -0.0312,0.2549 7.0484722,7.0484722 0 0 0 -0.039,0.5151 7.0484722,7.0484722 0 0 0 -0.003,0.2498 7.0484722,7.0484722 0 0 0 0.003,0.2575 7.0484722,7.0484722 0 0 0 0.0156,0.2576 7.0484722,7.0484722 0 0 0 0.0573,0.5125 7.0484722,7.0484722 0 0 0 0.0677,0.3746 c 0.76404,25.4058 21.61579,45.9409 47.20012,45.941 8.31061,0 16.477043,-2.1873 23.674193,-6.3426 a 7.0484722,7.0484722 0 0 0 2.58075,-9.6284 7.0484722,7.0484722 0 0 0 -9.62837,-2.5782 c -5.05474,2.9185 -10.789833,4.4539 -16.626573,4.4539 -16.02123,0 -29.26285,-11.1785 -32.47528,-26.2003 h 72.773443 a 7.0484722,7.0484722 0 0 0 1.53232,-0.1691 7.0484722,7.0484722 0 0 0 0.24975,-0.06 7.0484722,7.0484722 0 0 0 0.9756,-0.333 7.0484722,7.0484722 0 0 0 0.23414,-0.104 7.0484722,7.0484722 0 0 0 0.23154,-0.1145 7.0484722,7.0484722 0 0 0 0.45007,-0.2523 7.0484722,7.0484722 0 0 0 0.42925,-0.2836 7.0484722,7.0484722 0 0 0 0.60356,-0.4839 7.0484722,7.0484722 0 0 0 0.36942,-0.359 7.0484722,7.0484722 0 0 0 0.1769,-0.1873 7.0484722,7.0484722 0 0 0 0.1665,-0.1951 7.0484722,7.0484722 0 0 0 0.16131,-0.2029 7.0484722,7.0484722 0 0 0 0.43705,-0.6348 7.0484722,7.0484722 0 0 0 0.13014,-0.2237 7.0484722,7.0484722 0 0 0 0.23674,-0.4579 7.0484722,7.0484722 0 0 0 0.10403,-0.2368 7.0484722,7.0484722 0 0 0 0.0963,-0.2367 7.0484722,7.0484722 0 0 0 0.0884,-0.2445 7.0484722,7.0484722 0 0 0 0.0781,-0.2446 7.0484722,7.0484722 0 0 0 0.0702,-0.2471 7.0484722,7.0484722 0 0 0 0.0598,-0.2524 7.0484722,7.0484722 0 0 0 0.12481,-0.7623 7.0484722,7.0484722 0 0 0 0.0234,-0.2549 7.0484722,7.0484722 0 0 0 0.0182,-0.5073 7.0484722,7.0484722 0 0 0 -0.14308,-1.4075 c -0.76655,-25.4036 -21.61998,-45.9383 -47.202723,-45.9383 z m 0,14.0978 c 16.020103,0 29.261643,11.1776 32.475293,26.1977 H 57.771277 c 3.21363,-15.0201 16.45259,-26.1977 32.47268,-26.1977 z"
           id="path967" />
        <path
           style="color:#000000;font-style:normal;font-variant:normal;font-weight:normal;font-stretch:normal;font-size:medium;line-height:normal;font-family:sans-serif;font-variant-ligatures:normal;font-variant-position:normal;font-variant-caps:normal;font-variant-numeric:normal;font-variant-alternates:normal;font-variant-east-asian:normal;font-feature-settings:normal;font-variation-settings:normal;text-indent:0;text-align:start;text-decoration:none;text-decoration-line:none;text-decoration-style:solid;text-decoration-color:#000000;letter-spacing:normal;word-spacing:normal;text-transform:none;writing-mode:lr-tb;direction:ltr;text-orientation:mixed;dominant-baseline:auto;baseline-shift:baseline;text-anchor:start;white-space:normal;shape-padding:0;shape-margin:0;inline-size:0;clip-rule:nonzero;display:inline;overflow:visible;visibility:visible;isolation:auto;mix-blend-mode:normal;color-interpolation:sRGB;color-interpolation-filters:linearRGB;solid-color:#000000;solid-opacity:1;vector-effect:none;fill:#ffffff;fill-opacity:1;fill-rule:nonzero;stroke:none;stroke-width:1.332;stroke-linecap:round;stroke-linejoin:miter;stroke-miterlimit:4;stroke-dasharray:none;stroke-dashoffset:0;stroke-opacity:1;color-rendering:auto;image-rendering:auto;shape-rendering:auto;text-rendering:auto;enable-background:accumulate;stop-color:#000000"
           d="m 154.61517,1281.8117 a 7.0484722,7.0484722 0 0 0 -7.04762,7.0476 v 40.2982 0.1248 40.1707 a 7.0484722,7.0484722 0 0 0 7.04762,7.0476 7.0484722,7.0484722 0 0 0 7.05023,-7.0476 v -40.1707 c 0,-18.5148 14.85799,-33.3728 33.37282,-33.3728 a 7.0484722,7.0484722 0 0 0 7.04764,-7.0502 7.0484722,7.0484722 0 0 0 -7.04764,-7.0476 c -12.99056,0 -24.78437,5.2859 -33.37282,13.7987 v -6.7511 a 7.0484722,7.0484722 0 0 0 -7.05023,-7.0476 z"
           id="path1170" />
        <g
           id="path1257"
           style="fill:#ffffff"
           transform="translate(-68.303123,445.97429)">
          <path
             style="color:#000000;font-style:normal;font-variant:normal;font-weight:normal;font-stretch:normal;font-size:medium;line-height:normal;font-family:sans-serif;font-variant-ligatures:normal;font-variant-position:normal;font-variant-caps:normal;font-variant-numeric:normal;font-variant-alternates:normal;font-variant-east-asian:normal;font-feature-settings:normal;font-variation-settings:normal;text-indent:0;text-align:start;text-decoration:none;text-decoration-line:none;text-decoration-style:solid;text-decoration-color:#000000;letter-spacing:normal;word-spacing:normal;text-transform:none;writing-mode:lr-tb;direction:ltr;text-orientation:mixed;dominant-baseline:auto;baseline-shift:baseline;text-anchor:start;white-space:normal;shape-padding:0;shape-margin:0;inline-size:0;clip-rule:nonzero;display:inline;overflow:visible;visibility:visible;isolation:auto;mix-blend-mode:normal;color-interpolation:sRGB;color-interpolation-filters:linearRGB;solid-color:#000000;solid-opacity:1;vector-effect:none;fill:#ffffff;fill-opacity:1;fill-rule:nonzero;stroke:none;stroke-width:13.7967;stroke-linecap:round;stroke-linejoin:miter;stroke-miterlimit:4;stroke-dasharray:none;stroke-dashoffset:0;stroke-opacity:1;color-rendering:auto;image-rendering:auto;shape-rendering:auto;text-rendering:auto;enable-background:accumulate;stop-color:#000000;stop-opacity:1"
             d="m 303.29166,910.22993 c -5.90797,10.2329 -14.50781,13.69586 -27.99317,13.69586 m 66.96069,-81.18952 -38.96752,67.49366 m -13.52233,-67.49366 26.24496,45.45764"
             id="path1274" />
          <path
             style="color:#000000;font-style:normal;font-variant:normal;font-weight:normal;font-stretch:normal;font-size:medium;line-height:normal;font-family:sans-serif;font-variant-ligatures:normal;font-variant-position:normal;font-variant-caps:normal;font-variant-numeric:normal;font-variant-alternates:normal;font-variant-east-asian:normal;font-feature-settings:normal;font-variation-settings:normal;text-indent:0;text-align:start;text-decoration:none;text-decoration-line:none;text-decoration-style:solid;text-decoration-color:#000000;letter-spacing:normal;word-spacing:normal;text-transform:none;writing-mode:lr-tb;direction:ltr;text-orientation:mixed;dominant-baseline:auto;baseline-shift:baseline;text-anchor:start;white-space:normal;shape-padding:0;shape-margin:0;inline-size:0;clip-rule:nonzero;display:inline;overflow:visible;visibility:visible;isolation:auto;mix-blend-mode:normal;color-interpolation:sRGB;color-interpolation-filters:linearRGB;solid-color:#000000;solid-opacity:1;vector-effect:none;fill:#ffffff;fill-opacity:1;fill-rule:nonzero;stroke:none;stroke-linecap:round;stroke-linejoin:miter;stroke-miterlimit:4;stroke-dasharray:none;stroke-dashoffset:0;stroke-opacity:1;color-rendering:auto;image-rendering:auto;shape-rendering:auto;text-rendering:auto;enable-background:accumulate;stop-color:#000000;stop-opacity:1"
             d="m 289.70508,835.83789 c -1.18902,0.0111 -2.35499,0.32932 -3.38477,0.92383 -3.29989,1.9048 -4.43059,6.12418 -2.52539,9.42383 l 24.25391,42.00781 c -10.1304,18.75363 -14.80146,28.13353 -32.74995,28.83394 -3.80992,-5e-5 -6.89849,3.08852 -6.89844,6.89844 -5e-5,3.80992 3.08852,6.89849 6.89844,6.89844 7.33316,0 13.35503,-0.0264 20.49357,-4.05634 5.97843,-3.91418 9.17929,-6.62488 13.47322,-13.08819 l 12.67969,-21.96289 0.004,-0.006 c 0.0375,-0.0632 0.0739,-0.12703 0.10937,-0.19141 l 26.17383,-45.33398 c 1.90553,-3.29914 0.77574,-7.51836 -2.52344,-9.42383 -3.29965,-1.9052 -7.51902,-0.77449 -9.42382,2.52539 l -20.26954,35.10937 -20.27148,-35.10937 c -1.24379,-2.15459 -3.55135,-3.47256 -6.03906,-3.44922 z"
             id="path1276"
             sodipodi:nodetypes="cccccsscccccccccccc" />
        </g>
      </g>
    </g>
  </g>
</svg>
